<svg xmlns="http://www.w3.org/2000/svg" width="56" height="56" viewBox="0 0 56 56">
    <path data-name="패스 23" d="M10.5 3h15a7.5 7.5 0 0 1 7.5 7.5v15a7.5 7.5 0 0 1-7.5 7.5h-15A7.5 7.5 0 0 1 3 25.5v-15A7.5 7.5 0 0 1 10.5 3z" transform="translate(10 9)" style="stroke:#fff;stroke-linecap:round;stroke-linejoin:round;stroke-width:3px;fill:none"/>
    <path data-name="패스 24" d="M24 17.055A6 6 0 1 1 18.945 12 6 6 0 0 1 24 17.055z" transform="translate(10 9)" style="stroke:#fff;stroke-linecap:round;stroke-linejoin:round;stroke-width:3px;fill:none"/>
    <path data-name="패스 25" d="M26.25 9.75h0" transform="translate(10 9)" style="stroke:#fff;stroke-linecap:round;stroke-linejoin:round;stroke-width:3px;fill:none"/>
    <path data-name="사각형 285" style="fill:none" d="M0 0h56v56H0z"/>
</svg>
